PathFileType	4	(X/Y/Z)	D:\MotionData\Pi-Spi Study\20230118_AMCsubject1\Trimmed_right_abd_001_rotated.trc
DataRate	CameraRate	NumFrames	NumMarkers	Units	OrigDataRate	OrigDataStartFrame	OrigNumFrames
200.00	200.00	       5	35	mm	200.00	238	       271
Frame#	Time	C7			Sternum			r_AMC1			r_AMC2			r_AMC3			l_AMC1			l_AMC2			l_AMC3			PX			T8			r_humerous			r_elbow_medial			r_elbow_lateral			r_forearm			r_wrist_radius			r_wrist_ulna			r_MCP_1			r_MCP_3			l_humerous			l_elbow_medial			l_elbow_lateral			l_forearm			l_wrist_radius			l_wrist_ulna			l_MCP_1			l_MCP_3			r_ASIS			r_PSIS			l_ASIS			l_PSIS			r_IC			l_IC			TS			AI			AA			
		X1	Y1	Z1	X2	Y2	Z2	X3	Y3	Z3	X4	Y4	Z4	X5	Y5	Z5	X6	Y6	Z6	X7	Y7	Z7	X8	Y8	Z8	X9	Y9	Z9	X10	Y10	Z10	X11	Y11	Z11	X12	Y12	Z12	X13	Y13	Z13	X14	Y14	Z14	X15	Y15	Z15	X16	Y16	Z16	X17	Y17	Z17	X18	Y18	Z18	X19	Y19	Z19	X20	Y20	Z20	X21	Y21	Z21	X22	Y22	Z22	X23	Y23	Z23	X24	Y24	Z24	X25	Y25	Z25	X26	Y26	Z26	X27	Y27	Z27	X28	Y28	Z28	X29	Y29	Z29	X30	Y30	Z30	X31	Y31	Z31	X32	Y32	Z32	X33	Y33	Z33	X34	Y34	Z34	X35	Y35	Z35	

238	1.185	202.3803	1376.8052	-208.5713	328.9926	1301.5382	-197.2492	200.5781	1322.1266	-41.9879	237.3599	1318.0656	-8.7214	260.6007	1350.4818	-29.5777	228.8847	1327.1688	-373.478	269.8943	1318.0802	-403.5976	293.7265	1351.3527	-370.2873	381.5952	1111.9709	-191.7416	149.492	1193.3862	-220.2329	295.9704	1125.192	-5.8603	210.907	992.0391	-24.8878	237.0494	998.1906	35.1497	284.1352	839.453	43.2472	328.2468	777.1225	19.3913	280.6959	770.3522	38.1685	340.092	677.3185	32.5089	298.6081	690.1807	44.0875	322.9681	1116.0884	-388.18	222.9712	999.5878	-405.8025	262.0352	993.4816	-445.6806	311.6913	841.3345	-439.5765	341.1025	770.4875	-406.2817	304.9616	766.407	-433.9858	355.727	693.4707	-415.8085	312.5906	691.4045	-439.603	363.9716	907.3953	-65.7032	176.5298	922.7625	-157.6335	374.1074	895.0315	-328.1731	181.285	917.1755	-261.3176	276.4859	967.071	-40.5652	284.8031	940.8004	-367.1486	112.1316	1305.2681	-94.8757	103.2733	1204.509	-88.0017	187.8643	1300.6272	29.0693
239	1.19	202.3279	1376.793	-208.608	328.9178	1301.5233	-197.266	200.5297	1322.1107	-42.0258	237.3223	1318.0393	-8.727	260.8125	1350.5294	-29.3737	228.8437	1327.1417	-373.5059	270.0588	1318.0131	-403.55	293.6962	1351.3234	-370.3517	381.5539	1111.9565	-191.7454	149.4586	1193.3757	-220.2537	295.927	1125.194	-5.8577	210.8631	992.0338	-24.915	237.0259	998.1505	35.0325	284.0885	839.4703	43.2537	328.2109	777.1409	19.4398	280.6225	770.4062	38.2017	340.0695	677.3099	32.4878	298.5009	690.3176	44.0768	322.9008	1116.1033	-388.19	222.9326	999.5695	-405.826	261.986	993.4586	-445.6968	311.587	841.4051	-439.6472	341.0758	770.4565	-406.3001	304.9497	766.3721	-434.0104	355.6868	693.4467	-415.8182	312.5581	691.3764	-439.6103	363.8874	907.3012	-65.7034	176.5205	922.7659	-157.6732	374.1171	895.0253	-328.1565	181.2581	917.1844	-261.3261	276.4421	967.003	-40.5761	284.9203	940.8126	-367.1662	112.0885	1305.2914	-94.9117	103.2359	1204.4846	-88.0491	187.9779	1300.7644	29.2506
240	1.195	202.2856	1376.7958	-208.6544	328.8566	1301.5454	-197.2872	200.4929	1322.1	-42.0654	237.2818	1318.017	-8.7977	260.7499	1350.5314	-29.4195	228.7849	1327.1361	-373.5306	269.8451	1318.0122	-403.6565	293.7004	1351.2454	-370.3182	381.5295	1111.9457	-191.7775	149.4324	1193.3695	-220.2618	295.8875	1125.1495	-5.8896	210.8302	992.0211	-24.9847	236.9868	998.1468	35.008	284.0922	839.4713	43.2257	328.2276	777.0611	19.4056	280.6372	770.3601	38.1562	340.0733	677.3292	32.5017	298.5764	690.28	44.0619	322.8773	1116.0573	-388.1728	222.8674	999.5306	-405.8503	261.9515	993.4533	-445.6906	311.6064	841.3956	-439.6243	341.0949	770.3779	-406.3025	304.9449	766.3679	-434.0129	355.6365	693.4742	-415.8079	312.5422	691.3287	-439.6072	363.8688	907.3027	-65.7091	176.5017	922.7659	-157.6729	374.0654	895.0448	-328.1702	181.2487	917.158	-261.3403	276.4361	966.9806	-40.6314	284.7893	940.906	-367.216	112.0448	1305.2711	-94.9148	103.2008	1204.4613	-88.125	187.9278	1300.7653	29.2313
241	1.2	202.2203	1376.7849	-208.6635	328.7773	1301.5045	-197.3094	200.4229	1322.0679	-42.0712	237.21	1318.0322	-8.8438	260.7079	1350.519	-29.4461	228.7637	1327.0728	-373.506	270.0328	1317.9331	-403.6386	293.3171	1351.3502	-369.8725	381.4807	1111.9723	-191.8131	149.3991	1193.3673	-220.2927	295.8372	1125.1539	-5.8885	210.7758	992.0124	-24.9897	236.9314	998.1267	34.9969	284.0579	839.4704	43.2165	328.2031	777.1099	19.3878	280.6052	770.3885	38.1372	340.0341	677.321	32.4938	298.5478	690.2391	44.0865	322.8244	1116.0214	-388.2025	222.8376	999.517	-405.8611	261.9181	993.4304	-445.6963	311.6135	841.3571	-439.6002	341.0565	770.3577	-406.3467	304.7882	766.4528	-434.0488	355.6552	693.4316	-415.8176	312.5402	691.2358	-439.605	363.7747	907.2963	-65.7153	176.458	922.7587	-157.6758	374.0565	895.0109	-328.1773	181.2206	917.1595	-261.3561	276.3774	966.9788	-40.6253	284.6635	940.8964	-367.1887	112.0134	1305.2631	-94.9621	103.154	1204.4628	-88.1117	187.8498	1300.7677	29.1923
242	1.205	202.1936	1376.7707	-208.6957	328.7332	1301.5089	-197.3253	200.3765	1322.0491	-42.0982	237.0957	1318.0967	-8.8186	260.6164	1350.5391	-29.4739	228.6536	1327.1068	-373.5571	269.9127	1317.9835	-403.5921	293.2565	1351.3397	-369.8881	381.4261	1111.9606	-191.7889	149.3904	1193.3469	-220.3165	295.8038	1125.1096	-5.9115	210.7425	992.0232	-25.0069	236.8649	998.1172	34.9712	284.0342	839.4713	43.1967	328.1769	777.1047	19.3868	280.6599	770.2858	38.1033	340.0087	677.3328	32.5022	298.5374	690.2637	44.0637	322.7467	1116.079	-388.2399	222.9345	999.9508	-405.8781	261.9044	993.4359	-445.7208	311.5745	841.33	-439.6239	341.0168	770.3759	-406.3638	304.8327	766.3767	-434.0389	355.6129	693.4248	-415.8333	312.4105	691.329	-439.6171	363.8326	907.3168	-65.7117	176.4346	922.7388	-157.7063	374.049	895.0495	-328.1861	181.2092	917.1421	-261.3625	276.3588	966.9849	-40.6344	284.6774	940.9965	-367.1995	111.9703	1305.2528	-94.9943	103.1225	1204.4198	-88.1889	187.793	1300.751	29.1652
